G04*
G04 #@! TF.GenerationSoftware,Altium Limited,Altium Designer,19.1.5 (86)*
G04*
G04 Layer_Physical_Order=2*
G04 Layer_Color=16711680*
%FSLAX24Y24*%
%MOIN*%
G70*
G01*
G75*
%ADD11C,0.0039*%
%ADD21C,0.0080*%
%ADD22C,0.0200*%
G36*
X7898Y102D02*
X102D01*
Y8848D01*
X7898Y8848D01*
Y102D01*
D02*
G37*
%LPC*%
G36*
X4950Y6484D02*
X4880Y6470D01*
X4820Y6430D01*
X4817Y6425D01*
X4817Y6425D01*
X4815Y6424D01*
X4813Y6423D01*
X4811Y6423D01*
X4809Y6422D01*
X2000D01*
X1953Y6413D01*
X1913Y6387D01*
X1599Y6072D01*
X1241D01*
X1239Y6073D01*
X1237Y6073D01*
X1235Y6074D01*
X1233Y6075D01*
X1233Y6075D01*
X1230Y6080D01*
X1170Y6120D01*
X1100Y6134D01*
X1030Y6120D01*
X970Y6080D01*
X930Y6020D01*
X916Y5950D01*
X920Y5930D01*
X900Y5884D01*
X883Y5880D01*
X830Y5870D01*
X770Y5830D01*
X730Y5770D01*
X716Y5700D01*
X730Y5630D01*
X770Y5570D01*
X830Y5530D01*
X900Y5516D01*
X970Y5530D01*
X1030Y5570D01*
X1043Y5590D01*
X1047Y5593D01*
X1048Y5594D01*
X1048Y5595D01*
X1817D01*
X1864Y5604D01*
X1903Y5630D01*
X2051Y5778D01*
X4909D01*
X4911Y5777D01*
X4913Y5777D01*
X4915Y5776D01*
X4917Y5775D01*
X4917Y5775D01*
X4920Y5770D01*
X4980Y5730D01*
X5030Y5721D01*
X5030Y5670D01*
X5030Y5670D01*
X4970Y5630D01*
X4967Y5625D01*
X4967Y5625D01*
X4965Y5624D01*
X4963Y5623D01*
X4961Y5623D01*
X4959Y5622D01*
X4150D01*
X4103Y5613D01*
X4063Y5587D01*
X3849Y5372D01*
X1041D01*
X1039Y5373D01*
X1037Y5373D01*
X1035Y5374D01*
X1033Y5375D01*
X1033Y5375D01*
X1030Y5380D01*
X970Y5420D01*
X900Y5434D01*
X830Y5420D01*
X770Y5380D01*
X730Y5320D01*
X716Y5250D01*
X730Y5180D01*
X770Y5120D01*
X830Y5080D01*
X883Y5070D01*
X900Y5066D01*
X920Y5020D01*
X916Y5000D01*
X920Y4980D01*
X900Y4934D01*
X883Y4930D01*
X830Y4920D01*
X770Y4880D01*
X730Y4820D01*
X716Y4750D01*
X730Y4680D01*
X770Y4620D01*
X830Y4580D01*
X893Y4568D01*
X914Y4522D01*
X894Y4482D01*
X830Y4470D01*
X770Y4430D01*
X730Y4370D01*
X716Y4300D01*
X730Y4230D01*
X770Y4170D01*
X830Y4130D01*
X900Y4116D01*
X970Y4130D01*
X1030Y4170D01*
X1035Y4178D01*
X1569D01*
X1616Y4187D01*
X1656Y4213D01*
X1670Y4228D01*
X2999D01*
X3463Y3763D01*
X3503Y3737D01*
X3550Y3728D01*
X4759D01*
X4761Y3727D01*
X4763Y3727D01*
X4765Y3726D01*
X4767Y3725D01*
X4767Y3725D01*
X4770Y3720D01*
X4830Y3680D01*
X4900Y3666D01*
X4970Y3680D01*
X5030Y3720D01*
X5070Y3780D01*
X5084Y3850D01*
X5070Y3920D01*
X5030Y3980D01*
X4970Y4020D01*
X4900Y4034D01*
X4830Y4020D01*
X4770Y3980D01*
X4767Y3975D01*
X4767Y3975D01*
X4765Y3974D01*
X4763Y3973D01*
X4761Y3973D01*
X4759Y3972D01*
X3601D01*
X3242Y4331D01*
X3261Y4378D01*
X4299D01*
X4463Y4213D01*
X4503Y4187D01*
X4550Y4178D01*
X4859D01*
X4861Y4177D01*
X4863Y4177D01*
X4865Y4176D01*
X4867Y4175D01*
X4867Y4175D01*
X4870Y4170D01*
X4930Y4130D01*
X5000Y4116D01*
X5070Y4130D01*
X5130Y4170D01*
X5170Y4230D01*
X5184Y4300D01*
X5170Y4370D01*
X5130Y4430D01*
X5070Y4470D01*
X5020Y4479D01*
X5020Y4530D01*
X5020Y4530D01*
X5080Y4570D01*
X5120Y4630D01*
X5134Y4700D01*
X5120Y4770D01*
X5080Y4830D01*
X5020Y4870D01*
X5020Y4870D01*
X5020Y4921D01*
X5070Y4930D01*
X5130Y4970D01*
X5170Y5030D01*
X5184Y5100D01*
X5170Y5170D01*
X5130Y5230D01*
X5070Y5270D01*
X5000Y5284D01*
X4930Y5270D01*
X4870Y5230D01*
X4867Y5225D01*
X4867Y5225D01*
X4865Y5224D01*
X4863Y5223D01*
X4861Y5223D01*
X4859Y5222D01*
X4500D01*
X4453Y5213D01*
X4413Y5187D01*
X4349Y5122D01*
X4015D01*
X4004Y5138D01*
X3995Y5172D01*
X4201Y5378D01*
X4959D01*
X4961Y5377D01*
X4963Y5377D01*
X4965Y5376D01*
X4967Y5375D01*
X4967Y5375D01*
X4970Y5370D01*
X5030Y5330D01*
X5100Y5316D01*
X5170Y5330D01*
X5230Y5370D01*
X5270Y5430D01*
X5284Y5500D01*
X5270Y5570D01*
X5230Y5630D01*
X5170Y5670D01*
X5120Y5679D01*
X5120Y5730D01*
X5120Y5730D01*
X5180Y5770D01*
X5220Y5830D01*
X5234Y5900D01*
X5220Y5970D01*
X5180Y6030D01*
X5120Y6070D01*
X5050Y6084D01*
X4980Y6070D01*
X4920Y6030D01*
X4917Y6025D01*
X4917Y6025D01*
X4915Y6024D01*
X4913Y6023D01*
X4911Y6023D01*
X4909Y6022D01*
X2000D01*
X1958Y6014D01*
X1955Y6016D01*
X1944Y6071D01*
X2051Y6178D01*
X4809D01*
X4811Y6177D01*
X4813Y6177D01*
X4815Y6176D01*
X4817Y6175D01*
X4817Y6175D01*
X4820Y6170D01*
X4880Y6130D01*
X4950Y6116D01*
X5020Y6130D01*
X5080Y6170D01*
X5120Y6230D01*
X5134Y6300D01*
X5120Y6370D01*
X5080Y6430D01*
X5020Y6470D01*
X4950Y6484D01*
D02*
G37*
G36*
X1050Y3984D02*
X980Y3970D01*
X920Y3930D01*
X880Y3870D01*
X866Y3800D01*
X880Y3730D01*
X920Y3670D01*
X980Y3630D01*
X1050Y3616D01*
X1120Y3630D01*
X1180Y3670D01*
X1183Y3675D01*
X1183Y3675D01*
X1185Y3676D01*
X1187Y3677D01*
X1189Y3677D01*
X1191Y3678D01*
X2049D01*
X2663Y3063D01*
X2703Y3037D01*
X2750Y3028D01*
X4959D01*
X4961Y3027D01*
X4963Y3027D01*
X4965Y3026D01*
X4967Y3025D01*
X4967Y3025D01*
X4970Y3020D01*
X5030Y2980D01*
X5100Y2966D01*
X5170Y2980D01*
X5230Y3020D01*
X5270Y3080D01*
X5284Y3150D01*
X5270Y3220D01*
X5230Y3280D01*
X5170Y3320D01*
X5100Y3334D01*
X5030Y3320D01*
X4970Y3280D01*
X4967Y3275D01*
X4967Y3275D01*
X4965Y3274D01*
X4963Y3273D01*
X4961Y3273D01*
X4959Y3272D01*
X2801D01*
X2187Y3887D01*
X2147Y3913D01*
X2100Y3922D01*
X1191D01*
X1189Y3923D01*
X1187Y3923D01*
X1185Y3924D01*
X1183Y3925D01*
X1183Y3925D01*
X1180Y3930D01*
X1120Y3970D01*
X1050Y3984D01*
D02*
G37*
G36*
X950Y2834D02*
X880Y2820D01*
X820Y2780D01*
X780Y2720D01*
X766Y2650D01*
X780Y2580D01*
X820Y2520D01*
X880Y2480D01*
X950Y2466D01*
X1020Y2480D01*
X1080Y2520D01*
X1083Y2525D01*
X1083Y2525D01*
X1085Y2526D01*
X1087Y2527D01*
X1089Y2527D01*
X1091Y2528D01*
X2849D01*
X3514Y1863D01*
X3515Y1862D01*
X3516Y1859D01*
X3517Y1858D01*
X3518Y1856D01*
X3518Y1856D01*
X3516Y1850D01*
X3530Y1780D01*
X3570Y1720D01*
X3630Y1680D01*
X3700Y1666D01*
X3770Y1680D01*
X3830Y1720D01*
X3870Y1780D01*
X3884Y1850D01*
X3870Y1920D01*
X3830Y1980D01*
X3770Y2020D01*
X3700Y2034D01*
X3694Y2032D01*
X3694Y2032D01*
X3692Y2033D01*
X3690Y2034D01*
X3688Y2035D01*
X3687Y2036D01*
X2987Y2737D01*
X2947Y2763D01*
X2900Y2772D01*
X1091D01*
X1089Y2773D01*
X1087Y2773D01*
X1085Y2774D01*
X1083Y2775D01*
X1083Y2775D01*
X1080Y2780D01*
X1020Y2820D01*
X950Y2834D01*
D02*
G37*
%LPD*%
G36*
X4879Y6230D02*
X4872Y6236D01*
X4866Y6241D01*
X4859Y6245D01*
X4852Y6249D01*
X4844Y6252D01*
X4836Y6255D01*
X4827Y6257D01*
X4818Y6259D01*
X4808Y6260D01*
X4798Y6260D01*
Y6340D01*
X4808Y6340D01*
X4818Y6341D01*
X4827Y6343D01*
X4836Y6345D01*
X4844Y6348D01*
X4852Y6351D01*
X4859Y6355D01*
X4866Y6359D01*
X4872Y6364D01*
X4879Y6370D01*
Y6230D01*
D02*
G37*
G36*
X1178Y6014D02*
X1184Y6009D01*
X1191Y6005D01*
X1198Y6001D01*
X1206Y5997D01*
X1214Y5995D01*
X1223Y5993D01*
X1232Y5991D01*
X1242Y5990D01*
X1252Y5990D01*
Y5910D01*
X1242Y5910D01*
X1232Y5909D01*
X1223Y5907D01*
X1214Y5905D01*
X1206Y5903D01*
X1198Y5899D01*
X1191Y5895D01*
X1184Y5891D01*
X1178Y5886D01*
X1171Y5880D01*
Y6020D01*
X1178Y6014D01*
D02*
G37*
G36*
X4979Y5830D02*
X4972Y5836D01*
X4966Y5841D01*
X4959Y5845D01*
X4952Y5849D01*
X4944Y5853D01*
X4936Y5855D01*
X4927Y5857D01*
X4918Y5859D01*
X4908Y5860D01*
X4898Y5860D01*
Y5940D01*
X4908Y5940D01*
X4918Y5941D01*
X4927Y5943D01*
X4936Y5945D01*
X4944Y5947D01*
X4952Y5951D01*
X4959Y5955D01*
X4966Y5959D01*
X4972Y5964D01*
X4979Y5970D01*
Y5830D01*
D02*
G37*
G36*
X965Y5776D02*
X973Y5772D01*
X980Y5769D01*
X988Y5766D01*
X996Y5763D01*
X1005Y5761D01*
X1014Y5759D01*
X1023Y5758D01*
X1032Y5757D01*
X1042Y5757D01*
X1057Y5677D01*
X1047Y5677D01*
X1038Y5676D01*
X1029Y5674D01*
X1020Y5672D01*
X1013Y5668D01*
X1005Y5665D01*
X999Y5660D01*
X993Y5655D01*
X987Y5650D01*
X982Y5643D01*
X959Y5781D01*
X965Y5776D01*
D02*
G37*
G36*
X5029Y5430D02*
X5022Y5436D01*
X5016Y5441D01*
X5009Y5445D01*
X5002Y5449D01*
X4994Y5452D01*
X4986Y5455D01*
X4977Y5457D01*
X4968Y5459D01*
X4958Y5460D01*
X4948Y5460D01*
Y5540D01*
X4958Y5540D01*
X4968Y5541D01*
X4977Y5543D01*
X4986Y5545D01*
X4994Y5548D01*
X5002Y5551D01*
X5009Y5555D01*
X5016Y5559D01*
X5022Y5564D01*
X5029Y5570D01*
Y5430D01*
D02*
G37*
G36*
X978Y5314D02*
X984Y5309D01*
X991Y5305D01*
X998Y5301D01*
X1006Y5297D01*
X1014Y5295D01*
X1023Y5293D01*
X1032Y5291D01*
X1042Y5290D01*
X1052Y5290D01*
Y5210D01*
X1042Y5210D01*
X1032Y5209D01*
X1023Y5207D01*
X1014Y5205D01*
X1006Y5203D01*
X998Y5199D01*
X991Y5195D01*
X984Y5191D01*
X978Y5186D01*
X971Y5180D01*
Y5320D01*
X978Y5314D01*
D02*
G37*
G36*
X4929Y5030D02*
X4922Y5036D01*
X4916Y5041D01*
X4909Y5045D01*
X4902Y5049D01*
X4894Y5052D01*
X4886Y5055D01*
X4877Y5057D01*
X4868Y5059D01*
X4858Y5060D01*
X4848Y5060D01*
Y5140D01*
X4858Y5140D01*
X4868Y5141D01*
X4877Y5143D01*
X4886Y5145D01*
X4894Y5148D01*
X4902Y5151D01*
X4909Y5155D01*
X4916Y5159D01*
X4922Y5164D01*
X4929Y5170D01*
Y5030D01*
D02*
G37*
G36*
X1178Y5064D02*
X1184Y5059D01*
X1191Y5055D01*
X1198Y5051D01*
X1206Y5048D01*
X1214Y5045D01*
X1223Y5043D01*
X1232Y5041D01*
X1242Y5040D01*
X1252Y5040D01*
Y4960D01*
X1242Y4960D01*
X1232Y4959D01*
X1223Y4957D01*
X1214Y4955D01*
X1206Y4952D01*
X1198Y4949D01*
X1191Y4945D01*
X1184Y4941D01*
X1178Y4936D01*
X1171Y4930D01*
Y5070D01*
X1178Y5064D01*
D02*
G37*
G36*
X978Y4814D02*
X984Y4809D01*
X991Y4805D01*
X998Y4801D01*
X1006Y4798D01*
X1014Y4795D01*
X1023Y4793D01*
X1032Y4791D01*
X1042Y4790D01*
X1052Y4790D01*
Y4710D01*
X1042Y4710D01*
X1032Y4709D01*
X1023Y4707D01*
X1014Y4705D01*
X1006Y4703D01*
X998Y4699D01*
X991Y4695D01*
X984Y4691D01*
X978Y4686D01*
X971Y4680D01*
Y4820D01*
X978Y4814D01*
D02*
G37*
G36*
X4853Y4675D02*
X4851Y4682D01*
X4848Y4688D01*
X4844Y4693D01*
X4839Y4697D01*
X4833Y4701D01*
X4826Y4704D01*
X4819Y4707D01*
X4810Y4709D01*
X4801Y4710D01*
X4791Y4710D01*
X4803Y4790D01*
X4919Y4795D01*
X4853Y4675D01*
D02*
G37*
G36*
X1178Y4564D02*
X1184Y4559D01*
X1191Y4555D01*
X1198Y4551D01*
X1206Y4548D01*
X1214Y4545D01*
X1223Y4543D01*
X1232Y4541D01*
X1242Y4540D01*
X1252Y4540D01*
Y4460D01*
X1242Y4460D01*
X1232Y4459D01*
X1223Y4457D01*
X1214Y4455D01*
X1206Y4453D01*
X1198Y4449D01*
X1191Y4445D01*
X1184Y4441D01*
X1178Y4436D01*
X1171Y4430D01*
Y4570D01*
X1178Y4564D01*
D02*
G37*
G36*
X4929Y4230D02*
X4922Y4236D01*
X4916Y4241D01*
X4909Y4245D01*
X4902Y4249D01*
X4894Y4252D01*
X4886Y4255D01*
X4877Y4257D01*
X4868Y4259D01*
X4858Y4260D01*
X4848Y4260D01*
Y4340D01*
X4858Y4340D01*
X4868Y4341D01*
X4877Y4343D01*
X4886Y4345D01*
X4894Y4347D01*
X4902Y4351D01*
X4909Y4355D01*
X4916Y4359D01*
X4922Y4364D01*
X4929Y4370D01*
Y4230D01*
D02*
G37*
G36*
X4829Y3780D02*
X4822Y3786D01*
X4816Y3791D01*
X4809Y3795D01*
X4802Y3799D01*
X4794Y3803D01*
X4786Y3805D01*
X4777Y3807D01*
X4768Y3809D01*
X4758Y3810D01*
X4748Y3810D01*
Y3890D01*
X4758Y3890D01*
X4768Y3891D01*
X4777Y3893D01*
X4786Y3895D01*
X4794Y3898D01*
X4802Y3901D01*
X4809Y3905D01*
X4816Y3909D01*
X4822Y3914D01*
X4829Y3920D01*
Y3780D01*
D02*
G37*
G36*
X1128Y3864D02*
X1134Y3859D01*
X1141Y3855D01*
X1148Y3851D01*
X1156Y3848D01*
X1164Y3845D01*
X1173Y3843D01*
X1182Y3841D01*
X1192Y3840D01*
X1202Y3840D01*
Y3760D01*
X1192Y3760D01*
X1182Y3759D01*
X1173Y3757D01*
X1164Y3755D01*
X1156Y3753D01*
X1148Y3749D01*
X1141Y3745D01*
X1134Y3741D01*
X1128Y3736D01*
X1121Y3730D01*
Y3870D01*
X1128Y3864D01*
D02*
G37*
G36*
X5029Y3080D02*
X5022Y3086D01*
X5016Y3091D01*
X5009Y3095D01*
X5002Y3099D01*
X4994Y3103D01*
X4986Y3105D01*
X4977Y3107D01*
X4968Y3109D01*
X4958Y3110D01*
X4948Y3110D01*
Y3190D01*
X4958Y3190D01*
X4968Y3191D01*
X4977Y3193D01*
X4986Y3195D01*
X4994Y3198D01*
X5002Y3201D01*
X5009Y3205D01*
X5016Y3209D01*
X5022Y3214D01*
X5029Y3220D01*
Y3080D01*
D02*
G37*
G36*
X1028Y2714D02*
X1034Y2709D01*
X1041Y2705D01*
X1048Y2701D01*
X1056Y2697D01*
X1064Y2695D01*
X1073Y2693D01*
X1082Y2691D01*
X1092Y2690D01*
X1102Y2690D01*
Y2610D01*
X1092Y2610D01*
X1082Y2609D01*
X1073Y2607D01*
X1064Y2605D01*
X1056Y2603D01*
X1048Y2599D01*
X1041Y2595D01*
X1034Y2591D01*
X1028Y2586D01*
X1021Y2580D01*
Y2720D01*
X1028Y2714D01*
D02*
G37*
G36*
X3628Y1979D02*
X3636Y1973D01*
X3643Y1967D01*
X3651Y1963D01*
X3659Y1959D01*
X3666Y1955D01*
X3674Y1953D01*
X3682Y1951D01*
X3691Y1950D01*
X3699Y1950D01*
X3600Y1851D01*
X3600Y1859D01*
X3599Y1868D01*
X3597Y1876D01*
X3595Y1884D01*
X3591Y1891D01*
X3587Y1899D01*
X3583Y1907D01*
X3577Y1914D01*
X3571Y1922D01*
X3564Y1929D01*
X3621Y1986D01*
X3628Y1979D01*
D02*
G37*
D11*
X0Y0D02*
X8000D01*
Y8950D01*
X0D02*
X8000D01*
X0Y8950D02*
X0Y8950D01*
X0Y0D02*
Y8950D01*
D21*
X2000Y6300D02*
X4950D01*
X1650Y5950D02*
X2000Y6300D01*
X1100Y5950D02*
X1650D01*
X2000Y5900D02*
X5050D01*
X1817Y5717D02*
X2000Y5900D01*
X917Y5717D02*
X1817D01*
X900Y5700D02*
X917Y5717D01*
X4150Y5500D02*
X5100D01*
X3900Y5250D02*
X4150Y5500D01*
X900Y5250D02*
X3900D01*
X4500Y5100D02*
X5000D01*
X4400Y5000D02*
X4500Y5100D01*
X1100Y5000D02*
X4400D01*
X4900Y4750D02*
X4950Y4700D01*
X900Y4750D02*
X4900D01*
X1619Y4350D02*
X3050D01*
X1100Y4500D02*
X4350D01*
X4550Y4300D01*
X1569D02*
X1619Y4350D01*
X3050D02*
X3550Y3850D01*
X4550Y4300D02*
X5000D01*
X3550Y3850D02*
X4900D01*
X900Y4300D02*
X1569D01*
X2750Y3150D02*
X5100D01*
X2100Y3800D02*
X2750Y3150D01*
X1050Y3800D02*
X2100D01*
X2900Y2650D02*
X3700Y1850D01*
X950Y2650D02*
X2900D01*
D22*
X4400Y450D02*
D03*
X3600D02*
D03*
X2600Y500D02*
D03*
X1650D02*
D03*
X600D02*
D03*
X5200Y8400D02*
D03*
X4400D02*
D03*
X3450D02*
D03*
X2400D02*
D03*
X1550D02*
D03*
X900D02*
D03*
X7000Y4100D02*
D03*
X6950Y4850D02*
D03*
X7250Y5200D02*
D03*
X7300Y4500D02*
D03*
Y3800D02*
D03*
X3950Y4100D02*
D03*
X3750Y5500D02*
D03*
X6300Y7550D02*
D03*
Y6800D02*
D03*
X4650Y6950D02*
D03*
X4050D02*
D03*
X3450D02*
D03*
X4700Y2050D02*
D03*
X4300D02*
D03*
X200Y5450D02*
D03*
X4950Y6300D02*
D03*
X5050Y5900D02*
D03*
X5100Y5500D02*
D03*
X1100Y5950D02*
D03*
X1167Y5517D02*
D03*
X5000Y5100D02*
D03*
X4950Y4700D02*
D03*
X2000Y4150D02*
D03*
X5000Y4300D02*
D03*
X4900Y3850D02*
D03*
X5100Y3150D02*
D03*
X2100Y2100D02*
D03*
X950Y2150D02*
D03*
X900Y3100D02*
D03*
X950Y2650D02*
D03*
X1050Y3800D02*
D03*
X900Y4300D02*
D03*
X1100Y4500D02*
D03*
X900Y4750D02*
D03*
X1100Y5000D02*
D03*
X900Y5250D02*
D03*
Y5700D02*
D03*
Y6200D02*
D03*
X3700Y1850D02*
D03*
X2250Y2950D02*
D03*
X2350Y5600D02*
D03*
M02*
