G04*
G04 #@! TF.GenerationSoftware,Altium Limited,Altium Designer,19.1.5 (86)*
G04*
G04 Layer_Color=65535*
%FSLAX24Y24*%
%MOIN*%
G70*
G01*
G75*
%ADD10C,0.0100*%
%ADD11C,0.0039*%
%ADD12C,0.0060*%
D10*
X5174Y7670D02*
G03*
X5174Y7670I-50J0D01*
G01*
X5886Y402D02*
Y1216D01*
Y402D02*
X6228D01*
X7001D02*
X7855D01*
X5886Y7815D02*
Y8630D01*
X6228D01*
X7001D02*
X7855D01*
Y402D02*
Y8630D01*
X2150Y767D02*
X2217Y700D01*
X2350D01*
X2417Y767D01*
Y1033D01*
X2350Y1100D01*
X2217D01*
X2150Y1033D01*
Y967D01*
X2217Y900D01*
X2417D01*
X2550Y700D02*
Y767D01*
X2617D01*
Y700D01*
X2550D01*
X2883Y1100D02*
X3150D01*
Y1033D01*
X2883Y767D01*
Y700D01*
X3283Y900D02*
X3550D01*
X3683Y700D02*
X3816D01*
X3749D01*
Y1100D01*
X3683Y1033D01*
X4016D02*
X4083Y1100D01*
X4216D01*
X4283Y1033D01*
Y967D01*
X4216Y900D01*
X4149D01*
X4216D01*
X4283Y833D01*
Y767D01*
X4216Y700D01*
X4083D01*
X4016Y767D01*
X4416Y700D02*
Y767D01*
X4483D01*
Y700D01*
X4416D01*
X4749Y1033D02*
X4816Y1100D01*
X4949D01*
X5016Y1033D01*
Y967D01*
X4949Y900D01*
X4882D01*
X4949D01*
X5016Y833D01*
Y767D01*
X4949Y700D01*
X4816D01*
X4749Y767D01*
D11*
X398Y1503D02*
Y6803D01*
Y1503D02*
X1698D01*
Y6803D01*
X398D02*
X1698D01*
X0Y0D02*
X8000D01*
Y8950D01*
X0D02*
X8000D01*
X0Y8950D02*
X0Y8950D01*
X0Y0D02*
Y8950D01*
D12*
X3000Y1600D02*
X3300D01*
X3150D01*
X3100Y1650D01*
Y1750D01*
X3150Y1800D01*
X3300D01*
X3100Y1950D02*
Y2050D01*
X3150Y2100D01*
X3300D01*
Y1950D01*
X3250Y1900D01*
X3200Y1950D01*
Y2100D01*
X3100Y2200D02*
X3300D01*
X3200D01*
X3150Y2250D01*
X3100Y2300D01*
Y2350D01*
X3000Y2700D02*
X3300D01*
Y2550D01*
X3250Y2500D01*
X3150D01*
X3100Y2550D01*
Y2700D01*
Y2800D02*
X3250D01*
X3300Y2850D01*
X3250Y2900D01*
X3300Y2950D01*
X3250Y3000D01*
X3100D01*
Y3149D02*
Y3249D01*
X3150Y3299D01*
X3300D01*
Y3149D01*
X3250Y3100D01*
X3200Y3149D01*
Y3299D01*
X3100Y3399D02*
X3300D01*
X3200D01*
X3150Y3449D01*
X3100Y3499D01*
Y3549D01*
X3300Y3849D02*
Y3749D01*
X3250Y3699D01*
X3150D01*
X3100Y3749D01*
Y3849D01*
X3150Y3899D01*
X3200D01*
Y3699D01*
X3000Y4499D02*
X3300D01*
Y4349D01*
X3250Y4299D01*
X3150D01*
X3100Y4349D01*
Y4499D01*
X3300Y4749D02*
Y4649D01*
X3250Y4599D01*
X3150D01*
X3100Y4649D01*
Y4749D01*
X3150Y4799D01*
X3200D01*
Y4599D01*
X3100Y4899D02*
X3300Y4999D01*
X3100Y5099D01*
X3300Y5349D02*
Y5249D01*
X3250Y5199D01*
X3150D01*
X3100Y5249D01*
Y5349D01*
X3150Y5399D01*
X3200D01*
Y5199D01*
X3300Y5499D02*
Y5599D01*
Y5549D01*
X3000D01*
Y5499D01*
X3300Y5799D02*
Y5899D01*
X3250Y5949D01*
X3150D01*
X3100Y5899D01*
Y5799D01*
X3150Y5749D01*
X3250D01*
X3300Y5799D01*
X3400Y6049D02*
X3100D01*
Y6199D01*
X3150Y6248D01*
X3250D01*
X3300Y6199D01*
Y6049D01*
Y6348D02*
X3100D01*
Y6398D01*
X3150Y6448D01*
X3300D01*
X3150D01*
X3100Y6498D01*
X3150Y6548D01*
X3300D01*
Y6798D02*
Y6698D01*
X3250Y6648D01*
X3150D01*
X3100Y6698D01*
Y6798D01*
X3150Y6848D01*
X3200D01*
Y6648D01*
X3300Y6948D02*
X3100D01*
Y7098D01*
X3150Y7148D01*
X3300D01*
X3050Y7298D02*
X3100D01*
Y7248D01*
Y7348D01*
Y7298D01*
X3250D01*
X3300Y7348D01*
X2750Y2050D02*
X2450D01*
Y2200D01*
X2500Y2250D01*
X2600D01*
X2650Y2200D01*
Y2050D01*
X2550Y2350D02*
X2750D01*
X2650D01*
X2600Y2400D01*
X2550Y2450D01*
Y2500D01*
X2750Y2700D02*
Y2800D01*
X2700Y2850D01*
X2600D01*
X2550Y2800D01*
Y2700D01*
X2600Y2650D01*
X2700D01*
X2750Y2700D01*
Y3000D02*
X2500D01*
X2600D01*
Y2950D01*
Y3050D01*
Y3000D01*
X2500D01*
X2450Y3050D01*
X2750Y3350D02*
Y3250D01*
X2700Y3200D01*
X2600D01*
X2550Y3250D01*
Y3350D01*
X2600Y3400D01*
X2650D01*
Y3200D01*
X2750Y3500D02*
Y3649D01*
X2700Y3699D01*
X2650Y3649D01*
Y3550D01*
X2600Y3500D01*
X2550Y3550D01*
Y3699D01*
X2750Y3799D02*
Y3949D01*
X2700Y3999D01*
X2650Y3949D01*
Y3849D01*
X2600Y3799D01*
X2550Y3849D01*
Y3999D01*
X2750Y4099D02*
Y4199D01*
Y4149D01*
X2550D01*
Y4099D01*
X2750Y4399D02*
Y4499D01*
X2700Y4549D01*
X2600D01*
X2550Y4499D01*
Y4399D01*
X2600Y4349D01*
X2700D01*
X2750Y4399D01*
Y4649D02*
X2550D01*
Y4799D01*
X2600Y4849D01*
X2750D01*
X2550Y4999D02*
Y5099D01*
X2600Y5149D01*
X2750D01*
Y4999D01*
X2700Y4949D01*
X2650Y4999D01*
Y5149D01*
X2750Y5249D02*
Y5349D01*
Y5299D01*
X2450D01*
Y5249D01*
M02*
