G04*
G04 #@! TF.GenerationSoftware,Altium Limited,Altium Designer,19.1.5 (86)*
G04*
G04 Layer_Color=128*
%FSLAX24Y24*%
%MOIN*%
G70*
G01*
G75*
%ADD11C,0.0039*%
%ADD23C,0.0020*%
D11*
X0Y0D02*
X8000D01*
Y8950D01*
X0D02*
X8000D01*
X0Y8950D02*
X0Y8950D01*
X0Y0D02*
Y8950D01*
D23*
X4340Y450D02*
X4460D01*
X4400Y390D02*
Y510D01*
X3540Y450D02*
X3660D01*
X3600Y390D02*
Y510D01*
X2540Y500D02*
X2660D01*
X2600Y440D02*
Y560D01*
X1590Y500D02*
X1710D01*
X1650Y440D02*
Y560D01*
X540Y500D02*
X660D01*
X600Y440D02*
Y560D01*
X5140Y8400D02*
X5260D01*
X5200Y8340D02*
Y8460D01*
X4340Y8400D02*
X4460D01*
X4400Y8340D02*
Y8460D01*
X3390Y8400D02*
X3510D01*
X3450Y8340D02*
Y8460D01*
X2340Y8400D02*
X2460D01*
X2400Y8340D02*
Y8460D01*
X1490Y8400D02*
X1610D01*
X1550Y8340D02*
Y8460D01*
X840Y8400D02*
X960D01*
X900Y8340D02*
Y8460D01*
X6940Y4100D02*
X7060D01*
X7000Y4040D02*
Y4160D01*
X6890Y4850D02*
X7010D01*
X6950Y4790D02*
Y4910D01*
X7190Y5200D02*
X7310D01*
X7250Y5140D02*
Y5260D01*
X7240Y4500D02*
X7360D01*
X7300Y4440D02*
Y4560D01*
X7240Y3800D02*
X7360D01*
X7300Y3740D02*
Y3860D01*
X3890Y4100D02*
X4010D01*
X3950Y4040D02*
Y4160D01*
X3690Y5500D02*
X3810D01*
X3750Y5440D02*
Y5560D01*
X6240Y7550D02*
X6360D01*
X6300Y7490D02*
Y7610D01*
X6240Y6800D02*
X6360D01*
X6300Y6740D02*
Y6860D01*
X4590Y6950D02*
X4710D01*
X4650Y6890D02*
Y7010D01*
X3990Y6950D02*
X4110D01*
X4050Y6890D02*
Y7010D01*
X3390Y6950D02*
X3510D01*
X3450Y6890D02*
Y7010D01*
X4640Y2050D02*
X4760D01*
X4700Y1990D02*
Y2110D01*
X4240Y2050D02*
X4360D01*
X4300Y1990D02*
Y2110D01*
X140Y5450D02*
X260D01*
X200Y5390D02*
Y5510D01*
X4890Y6300D02*
X5010D01*
X4950Y6240D02*
Y6360D01*
X4990Y5900D02*
X5110D01*
X5050Y5840D02*
Y5960D01*
X5040Y5500D02*
X5160D01*
X5100Y5440D02*
Y5560D01*
X1040Y5950D02*
X1160D01*
X1100Y5890D02*
Y6010D01*
X1107Y5517D02*
X1227D01*
X1167Y5457D02*
Y5577D01*
X4940Y5100D02*
X5060D01*
X5000Y5040D02*
Y5160D01*
X4890Y4700D02*
X5010D01*
X4950Y4640D02*
Y4760D01*
X1940Y4150D02*
X2060D01*
X2000Y4090D02*
Y4210D01*
X4940Y4300D02*
X5060D01*
X5000Y4240D02*
Y4360D01*
X4840Y3850D02*
X4960D01*
X4900Y3790D02*
Y3910D01*
X5040Y3150D02*
X5160D01*
X5100Y3090D02*
Y3210D01*
X2040Y2100D02*
X2160D01*
X2100Y2040D02*
Y2160D01*
X890Y2150D02*
X1010D01*
X950Y2090D02*
Y2210D01*
X840Y3100D02*
X960D01*
X900Y3040D02*
Y3160D01*
X890Y2650D02*
X1010D01*
X950Y2590D02*
Y2710D01*
X990Y3800D02*
X1110D01*
X1050Y3740D02*
Y3860D01*
X840Y4300D02*
X960D01*
X900Y4240D02*
Y4360D01*
X1040Y4500D02*
X1160D01*
X1100Y4440D02*
Y4560D01*
X840Y4750D02*
X960D01*
X900Y4690D02*
Y4810D01*
X1040Y5000D02*
X1160D01*
X1100Y4940D02*
Y5060D01*
X840Y5250D02*
X960D01*
X900Y5190D02*
Y5310D01*
X840Y5700D02*
X960D01*
X900Y5640D02*
Y5760D01*
X840Y6200D02*
X960D01*
X900Y6140D02*
Y6260D01*
X3640Y1850D02*
X3760D01*
X3700Y1790D02*
Y1910D01*
X2190Y2950D02*
X2310D01*
X2250Y2890D02*
Y3010D01*
X2290Y5600D02*
X2410D01*
X2350Y5540D02*
Y5660D01*
M02*
