M48
;Layer_Color=9474304
;FILE_FORMAT=2:4
INCH,LZ
;TYPE=PLATED
T1F00S00C0.0120
%
T01
X0006Y0005
X00165
X0026
X0036Y00045
X0044
X0043Y00205
X0047
X0037Y00185
X0021Y0021
X00225Y00295
X002Y00415
X0009Y0043
X0011Y0045
X0009Y00475
X0011Y005
X0009Y00525
Y0057
X0011Y00595
X0009Y0062
X001167Y005517
X0002Y00545
X00235Y0056
X00375Y0055
X0051
X00505Y0059
X00495Y0063
X00465Y00695
X00405
X00345
Y0084
X0044
X0052
X0063Y00755
Y0068
X00725Y0052
X00695Y00485
X0073Y0045
X007Y0041
X0073Y0038
X0049Y00385
X005Y0043
X00495Y0047
X005Y0051
X00395Y0041
X0051Y00315
X0009Y0031
X00095Y00265
Y00215
X00105Y0038
X0009Y0084
X00155
X0024
M30
